<svg width="30" height="16" viewBox="0 0 30 16" fill="none" xmlns="http://www.w3.org/2000/svg">
<g id="Senff">
<path id="Fill 33" fill-rule="evenodd" clip-rule="evenodd" d="M26.2802 2.9733C26.2802 2.9733 28.2 3.27285 28.2 7.28407C28.2 9.19491 26.2639 11.7821 26.2639 11.7821C26.2639 11.7821 21.1739 15.6899 17.1074 15.5984C12.5239 15.495 9.45303 15.1562 5.8743 13.988C3.33166 13.158 2.19474 11.7024 2.19474 11.7024L2.54489 10.4318L1.39999 5.1343L4.26358 2.2969L11.8594 0.199997L20.5399 0.754296L23.6823 1.84222L26.2802 2.9733Z" fill="#121F4F"/>
<path id="Fill 34" fill-rule="evenodd" clip-rule="evenodd" d="M16.0209 7.39362C16.9473 5.98732 17.3209 5.60556 17.7084 5.60556C18.1135 5.60556 18.2553 5.89388 18.1811 6.80647C18.149 7.20154 17.9724 8.15897 17.8983 9.07086C17.8572 9.57535 17.8582 10.0503 17.8656 10.3254C17.8698 10.3941 17.888 10.5668 17.9031 10.7459C17.9181 10.926 17.9293 11.1062 17.9217 11.1985C17.9009 11.4553 17.3172 11.8329 17.0446 11.8329C16.5349 11.8329 16.2007 10.9598 16.3078 9.64399C16.3313 9.35694 16.3606 9.11527 16.4515 8.60167L16.374 8.55348C15.3095 10.0133 15.0592 10.6671 14.341 11.7467C14.2033 11.9214 14.0796 12 13.9499 12C13.5904 12 13.3481 11.5377 13.4095 10.7838C13.502 9.64792 14.314 6.19691 15.0735 5.11564C15.2329 4.89681 15.3973 4.8 15.5886 4.8C15.8666 4.8 16.0173 5.09028 15.9644 5.74257C15.9199 6.28741 15.808 6.93802 15.5956 7.86084L15.6736 7.91057L16.0209 7.39362Z" fill="#FFFFFE"/>
<path id="Fill 35" fill-rule="evenodd" clip-rule="evenodd" d="M13.586 6.60983C13.6735 5.60544 13.3472 5 12.7224 5C11.9951 5 10.96 5.70896 10.2051 7.08242C9.69113 8.04234 9.28841 9.25322 9.21376 10.1098C9.11194 11.2764 9.58151 12 10.4113 12C11.5484 12 13.1932 10.1761 13.1834 9.8191C13.1791 9.65582 13.0634 9.43039 12.8688 9.43039C12.7867 9.43039 12.6113 9.56338 12.3652 9.7996C11.9296 10.2131 11.579 10.4823 11.3367 10.4346C10.9769 10.3637 11.001 9.87283 11.083 9.50783C11.1578 9.61065 11.2617 9.61836 11.3538 9.61836C12.0402 9.61836 13.4416 8.26384 13.586 6.60983ZM12.2888 6.44725C12.2619 6.7574 12.1771 7.84946 11.489 8.92764C11.405 9.07142 11.2931 9.15334 11.2307 9.13132C11.1528 9.10397 11.1405 9.0097 11.1651 8.75692C11.2814 7.56217 11.9856 6.04858 12.2109 6.04858C12.2826 6.04858 12.3107 6.19629 12.2888 6.44725Z" fill="#FFFFFE"/>
<path id="Fill 36" fill-rule="evenodd" clip-rule="evenodd" d="M5.61143 5.2853C5.4859 5.77517 5.75323 6.38553 6.23294 6.76813C6.71537 7.15291 7.45671 7.62792 7.8991 7.98994C8.88892 8.80012 9.24324 9.58085 9.16575 10.3425C9.08908 11.0957 8.6893 11.6897 7.27324 12.1859C5.6596 12.751 2.90728 12.1696 1.22646 10.7723C0.833063 10.4453 0.122388 9.73515 0.20693 9.26109C0.258633 8.97199 0.427447 8.71656 0.787738 9.23165C1.09673 9.6734 1.42798 10.1937 1.90837 10.5138C2.9142 11.1842 3.36663 11.3227 4.2753 11.3107C5.12425 11.2995 6.5931 10.945 6.65715 9.90389C6.67968 9.53655 6.56162 9.08403 5.58917 8.34514C5.33242 8.15009 4.98421 7.9958 4.34274 7.42579C3.58905 6.75613 3.40219 6.28385 3.40219 5.58367C3.40219 5.07526 3.7698 4.18657 4.61238 3.67435C5.82597 2.93641 7.71685 2.74491 9.30037 3.3982C9.82961 3.61642 10.061 4.01401 9.98634 4.17935C9.87833 4.41801 9.57096 4.32165 9.20538 4.24655C7.06616 3.80765 5.8561 4.32914 5.61143 5.2853Z" fill="#FFFFFE"/>
<path id="Fill 37" fill-rule="evenodd" clip-rule="evenodd" d="M3.30199 11.4006C2.64282 11.2591 1.60594 10.6514 1.01866 9.83659C0.0734339 8.52501 -0.356264 7.08541 0.352995 5.54429C2.3194 1.27251 10.4126 -0.872877 19.1377 0.33289C21.8088 0.721776 24.9154 1.59705 27.0565 3.1788C29.2035 4.77803 30.2521 6.54133 29.9485 8.56786C29.4419 11.9522 24.7444 14.0647 23.5465 14.5297C21.1789 15.4492 18.0444 16.364 12.0348 15.8532C9.13012 15.6065 5.79191 14.295 3.73155 13.0574C2.86241 12.5323 1.97215 11.8641 1.65942 11.4767C1.41465 11.1733 1.33329 11.0504 1.64195 11.2245C2.1342 11.562 2.62021 11.8726 3.10041 12.1584C8.12506 15.1485 12.5098 15.4101 16.8285 15.1226C19.0985 14.9716 21.7841 14.2776 23.1509 13.5905C24.1769 13.0747 27.0473 11.4641 27.7796 9.01083C28.2588 7.48761 27.9587 4.2008 23.4699 2.32267C20.6636 1.14852 19.0312 0.744105 15.8022 0.652708C10.4906 0.50223 6.46583 1.5492 4.55128 2.82514C2.97058 3.87849 2.30938 5.04598 2.50162 6.31166C2.81408 8.3687 5.77133 8.97145 5.43504 10.5285C5.3132 11.0935 4.32655 11.6207 3.30199 11.4006Z" fill="#8D989C"/>
<path id="Fill 38" fill-rule="evenodd" clip-rule="evenodd" d="M20.0413 10.3146C19.8034 11.8302 19.5922 12.7225 19.4109 12.9482C19.2806 13.1061 19.0553 13.2 18.8422 13.2C18.1438 13.2 18.1843 12.7468 18.2124 12.4633C18.6206 8.33972 20.0401 4.36162 21.1662 3.91349C21.7487 3.68191 22.2255 3.83752 22.4518 4.08673C22.6505 4.30546 22.6543 4.56519 22.4334 4.65167C22.3793 4.67271 22.3273 4.6764 22.2757 4.67244C22.2268 4.66848 22.176 4.65727 22.12 4.64593C22.0136 4.62435 21.8922 4.60399 21.7288 4.6391C21.2817 4.78092 21.1066 5.33151 21.0709 5.45516C20.7891 6.43503 20.5351 7.53199 20.4193 8.46842C20.4759 8.46869 20.5668 8.46446 20.6622 8.45926C20.7895 8.45216 20.917 8.44382 20.9614 8.44382C21.3247 8.44382 21.5127 8.54807 21.4845 8.83307C21.4598 9.08173 21.2664 9.47193 21.0636 9.69053C20.9365 9.83384 20.8373 9.91254 20.6883 9.962C20.6168 9.98577 20.5335 10.0028 20.4286 10.018C20.3337 10.0319 20.2207 10.0444 20.082 10.0595L20.0413 10.3146Z" fill="#FFFFFE"/>
<path id="Fill 39" fill-rule="evenodd" clip-rule="evenodd" d="M23.0413 10.3146C22.8036 11.8302 22.5923 12.7225 22.4109 12.9482C22.2806 13.1061 22.0553 13.2 21.8422 13.2C21.1437 13.2 21.1843 12.7468 21.2124 12.4633C21.6206 8.33972 23.0402 4.36162 24.1661 3.91349C24.7485 3.68191 25.2254 3.83752 25.4517 4.08673C25.6505 4.30546 25.6544 4.56519 25.4333 4.65167C25.3794 4.67271 25.3273 4.6764 25.2756 4.67244C25.2268 4.66848 25.176 4.65727 25.12 4.64593C25.0135 4.62435 24.8922 4.60399 24.7288 4.6391C24.2817 4.78092 24.1065 5.33151 24.0709 5.45516C23.7892 6.43503 23.5351 7.53199 23.4193 8.46842C23.4758 8.46869 23.5669 8.46446 23.6621 8.45926C23.7896 8.45216 23.9171 8.44382 23.9615 8.44382C24.3246 8.44382 24.5127 8.54807 24.4846 8.83307C24.4599 9.08173 24.2664 9.47193 24.0637 9.69053C23.9365 9.83384 23.8373 9.91254 23.6883 9.962C23.6168 9.98577 23.5335 10.0028 23.4284 10.018C23.3337 10.0319 23.2207 10.0444 23.082 10.0595L23.0413 10.3146Z" fill="#FFFFFE"/>
</g>
</svg>
