<?xml version="1.0" encoding="utf-8"?>
<!-- Generator: Adobe Illustrator 16.0.0, SVG Export Plug-In . SVG Version: 6.00 Build 0)  -->
<!DOCTYPE svg PUBLIC "-//W3C//DTD SVG 1.1//EN" "http://www.w3.org/Graphics/SVG/1.1/DTD/svg11.dtd">
<svg version="1.1" id="Camada_1" xmlns="http://www.w3.org/2000/svg" xmlns:xlink="http://www.w3.org/1999/xlink" x="0px" y="0px"
	 width="435.974px" height="366.81px" viewBox="87.969 212.612 435.974 366.81"
	 enable-background="new 87.969 212.612 435.974 366.81" xml:space="preserve">
<image display="none" overflow="visible" enable-background="new    " width="1921" height="1080" id="XMLID_3_" xlink:href="C1AE7C5114544575.jpeg"  transform="matrix(0.4348 0 0 0.4351 -201.1748 161.0767)">
</image>
<g id="XMLID_1_">
	<g id="XMLID_12_">
		<path id="XMLID_62_" fill="#565656" d="M230.365,273.052c0,0,96.801,44.072,80.964,55.166c-7.396,5.177-21.187,8.701-34.239,10.92
			c-14.792,2.479-28.583,3.306-30.802,2.871c-4.22-0.783,62.039,15.314,62.039,15.314l107.722-20.883l10.746-23.406l-167.803-57.298
			L230.365,273.052z"/>
		<path id="XMLID_59_" fill="#262626" d="M118.946,456.474l-28.845,5.612l13.705,84.88l92.45-13.573l26.452-1.74l90.537-10.79
			l62.648,15.706l75.353,7.526l48.64,1.305l-13.661-70.914c37.59-51.381,57.298-124.123,2.872-184.205
			c-21.058-23.232-64.824-53.382-104.11-64.911c-13.096-3.829-13.792-3.611-23.45-5.482l-2.784-0.522
			c-38.851-7.961-96.453-15.401-116.64,18.272c10.311-5.873,24.146-8.918,32.107,1.784c-15.662-9.789-28.583-2.132-35.153,3.567
			c-6.134,11.485-8.701,21.448-8.658,30.062c10.441,2.175,10.963-6.091,22.71-1.827c3.002,1.087,19.447,10.441,22.754,12.269
			c8.048,4.568,18.621,9.484,27.234,12.356c34.283,11.398,70.785,16.88,106.721,20.97c-45.42-2.175-44.115,37.198-163.539,25.146
			c0,0,13.791,22.971,46.508,22.406s97.454,20.97,83.097,44.289c-14.574,23.667-126.994,32.064-161.06,35.196
			C214.833,443.856,185.162,445.945,118.946,456.474z M368.627,282.841c-33.064,0-31.193-51.859,1.914-49.292
			C401.17,235.897,399.299,282.841,368.627,282.841z"/>
		<path id="XMLID_58_" fill="#262626" d="M361.318,257.607c0,8.44,2.871,15.923,7.222,20.404c4.438-4.481,7.353-12.008,7.353-20.579
			c0-8.44-2.871-15.923-7.222-20.404C364.232,241.51,361.318,249.037,361.318,257.607z"/>
		<path id="XMLID_57_" fill="#262626" d="M260.079,257.042c0.914,0.696,1.74,1.523,2.393,2.437
			c-6.004-2.132-13.748,0.652-18.621,7.178c-4.873,6.526-5.308,14.749-1.522,19.882c-1.088-0.392-2.088-0.914-3.002-1.61
			c-6.222-4.611-6.613-14.618-0.87-22.318C244.2,254.91,253.858,252.386,260.079,257.042z"/>
		<path id="XMLID_56_" fill="#262626" d="M284.704,264.002c0.914,0.696,1.74,1.523,2.393,2.437
			c-6.004-2.132-13.748,0.652-18.621,7.178c-4.873,6.526-5.308,14.749-1.523,19.882c-1.087-0.391-2.088-0.914-3.002-1.609
			c-6.221-4.612-6.613-14.618-0.87-22.319C268.824,261.871,278.482,259.348,284.704,264.002z"/>
		<path id="XMLID_47_" fill="#262626" d="M276.133,334.265c0.783-0.87,1.653-1.566,2.654-2.175
			c-2.698,5.787-0.696,13.748,5.351,19.23c6.047,5.481,14.183,6.743,19.665,3.48c-0.479,1.044-1.088,2.001-1.87,2.828
			c-5.221,5.743-15.184,5.134-22.319-1.305C272.479,349.884,270.912,340.008,276.133,334.265z"/>
		<path id="XMLID_48_" fill="#262626" d="M263.429,334.265c0.783-0.87,1.653-1.566,2.654-2.175
			c-2.697,5.787-0.696,13.748,5.352,19.23c6.047,5.481,14.183,6.743,19.665,3.48c-0.479,1.044-1.087,2.001-1.871,2.828
			c-5.221,5.743-15.184,5.134-22.319-1.305C259.775,349.884,258.208,340.008,263.429,334.265z"/>
		<g id="XMLID_54_">
			<path id="XMLID_37_" fill="#262626" d="M296.798,337.311c-38.895-23.972-96.67,20.535-129.518-37.154
				c10.833,16.054,24.059,22.841,38.459,24.189c-13.139-4.83-25.146-14.531-35.066-32.586
				c32.76,53.469,88.666,11.921,126.995,34.022c0,0,43.201,24.755,43.114,26.887c-0.044,1.262-2.61,3.654-15.053-1.131
				C316.812,348.23,296.798,337.311,296.798,337.311z"/>
		</g>
	</g>
	<g id="XMLID_8_">
		<g id="XMLID_229_">
			<g id="XMLID_256_">
				<path id="XMLID_257_" fill="#262626" d="M156.23,568.327c0.087-5.742,0.217-11.441,0.304-17.185
					c-1.696,5.917-3.437,11.877-5.133,17.794c-8.092,1.088-16.141,2.263-24.233,3.48c-1.479-5.351-2.915-10.659-4.394-16.01
					c-0.087,5.568-0.174,11.138-0.305,16.75c-11.529,1.827-23.015,3.828-34.5,6.047c0.696-39.199,1.349-78.354,2.045-117.554
					c12.791-2.393,25.582-4.611,38.416-6.569c3.959,15.575,7.961,31.194,11.92,46.812c4.612-16.837,9.18-33.674,13.792-50.467
					c12.921-1.696,25.843-3.176,38.807-4.438c-0.696,39.112-1.392,78.224-2.044,117.379
					C179.375,565.5,167.803,566.849,156.23,568.327z"/>
			</g>
			<path id="XMLID_254_" fill="#F2F2F2" d="M122.6,464.739c5.699,22.362,11.398,44.725,17.142,67.174
				c0.13,0,0.217-0.044,0.348-0.044c6.613-24.189,13.226-48.378,19.839-72.438c8.397-1.044,16.793-2.045,25.19-2.915
				c-0.565,33.282-1.174,66.608-1.74,99.891c-6.395,0.652-12.791,1.392-19.143,2.175c0.13-8.266,0.305-16.532,0.435-24.755
				c0.87-15.271,1.74-30.585,2.61-45.855c-0.13,0-0.217,0-0.348-0.043c-7.004,24.276-14.052,48.64-21.057,73.046
				c-4.264,0.609-8.571,1.219-12.834,1.871c-6.091-22.318-12.225-44.594-18.316-66.825c-0.13,0.044-0.218,0.087-0.348,0.131
				c0.348,14.922,0.696,29.845,1,44.768c-0.13,8.266-0.304,16.532-0.435,24.798c-6.352,1.045-12.704,2.176-19.012,3.307
				c0.566-33.325,1.175-66.694,1.74-100.021C105.938,467.48,114.247,466.088,122.6,464.739z"/>
			<g id="XMLID_252_">
				<path id="XMLID_253_" fill="#262626" d="M239.719,560.584c-1.436-6.396-2.915-12.748-4.351-19.144
					c-4.698,0.305-9.354,0.609-14.052,0.914c-1.653,6.569-3.307,13.183-5.003,19.752c-11.92,0.913-23.841,2.001-35.762,3.307
					c11.094-40.243,22.188-80.356,33.326-120.295c10.746-0.826,21.448-1.566,32.194-2.088c9.789,38.546,19.578,77.223,29.323,116.03
					C263.516,559.409,251.596,559.931,239.719,560.584z"/>
			</g>
			<g id="XMLID_250_">
				<path id="XMLID_251_" fill="#262626" d="M331.821,559.018c0.087-5.699,0.217-11.442,0.304-17.142
					c-1.74,5.655-3.437,11.354-5.177,17.055c-8.136-0.131-16.271-0.218-24.407-0.218c-1.479-5.569-2.958-11.094-4.438-16.663
					c-0.087,5.569-0.218,11.138-0.305,16.706c-11.616,0.088-23.275,0.305-34.892,0.74c0.696-39.068,1.392-78.181,2.088-117.249
					c12.921-0.436,25.886-0.696,38.807-0.696c4.003,16.185,8.005,32.369,12.008,48.597c4.611-16.141,9.267-32.282,13.879-48.379
					c13.008,0.261,26.017,0.783,38.981,1.479c-0.696,39.024-1.393,78.05-2.089,117.074
					C355.097,559.713,343.48,559.278,331.821,559.018z"/>
			</g>
			<path id="XMLID_248_" fill="#F2F2F2" d="M297.93,450.296c5.743,23.231,11.529,46.508,17.271,69.783c0.131,0,0.218,0,0.349,0
				c6.656-23.188,13.312-46.334,19.969-69.436c8.44,0.218,16.881,0.522,25.321,0.914c-0.566,33.194-1.175,66.434-1.74,99.629
				c-6.396-0.305-12.835-0.522-19.23-0.74c0.131-8.223,0.305-16.488,0.436-24.711c0.87-15.141,1.74-30.324,2.61-45.464
				c-0.131-0.044-0.218-0.044-0.349-0.087c-7.048,23.231-14.096,46.508-21.187,69.827c-4.308-0.044-8.614-0.087-12.965-0.087
				c-6.179-23.232-12.312-46.465-18.491-69.61c-0.13,0.044-0.217,0.044-0.348,0.087c0.348,14.967,0.696,29.933,1.044,44.898
				c-0.13,8.223-0.305,16.489-0.435,24.712c-6.396,0.087-12.834,0.218-19.229,0.392c0.565-33.239,1.174-66.521,1.74-99.76
				C281.093,450.513,289.489,450.383,297.93,450.296z"/>
			<g id="XMLID_242_">
				<g id="XMLID_243_">
					<path id="XMLID_244_" fill="#262626" d="M364.016,560.192c0.696-39.025,1.392-78.051,2.088-117.075
						c12.008,0.609,24.016,1.436,35.979,2.437c11.877,1,21.405,4.829,28.366,11.268c5.352,4.916,11.703,14.053,11.442,29.062
						c-0.131,6.221-1.479,11.703-4.047,16.401c-0.479,0.87-1,1.697-1.565,2.523c1.262,1.522,2.349,3.176,3.307,5.003
						c3.045,5.787,4.524,12.226,4.394,19.1c-0.218,12.355-4.046,21.535-11.355,27.365c-6.873,5.481-16.357,7.657-28.191,6.656
						C390.989,561.802,377.502,560.888,364.016,560.192z M404.693,527.693c2.61,0.217,3.872-0.218,4.221-0.522
						c0.087-0.087,0.392-0.696,0.435-2.35c0.044-2.306-0.305-3.523-0.479-3.872c-0.261-0.174-1.088-0.521-2.61-0.652
						c-2.219-0.174-4.395-0.392-6.613-0.565c-0.043,2.523-0.087,5.003-0.13,7.526C401.213,527.389,402.953,527.562,404.693,527.693z
						 M401.648,487.102c3.654,0.218,4.829-0.565,5.003-0.739c0.348-0.261,0.392-1.131,0.435-1.827
						c0.044-1.523-0.174-2.176-0.261-2.35c-0.261-0.174-1.522-1.088-5.09-1.393c-0.479-0.043-0.957-0.087-1.479-0.13
						c-0.043,2.088-0.087,4.177-0.131,6.265C400.691,487.015,401.17,487.059,401.648,487.102z"/>
				</g>
			</g>
			<path id="XMLID_238_" fill="#F2F2F2" d="M371.977,551.882c0.566-33.194,1.175-66.39,1.74-99.585
				c9.441,0.565,18.882,1.218,28.323,2.001c10.224,0.87,18.186,3.959,23.798,9.093c5.655,5.178,8.396,12.312,8.223,21.405
				c-0.088,4.742-1.088,8.832-3.002,12.355c-1.915,3.48-4.786,5.961-8.701,7.439c4.785,1.827,8.31,4.873,10.528,9.093
				c2.219,4.264,3.307,8.963,3.219,14.14c-0.174,9.702-3.001,16.75-8.483,21.145c-5.481,4.394-13.27,6.091-23.319,5.221
				C393.6,553.274,382.81,552.535,371.977,551.882z M392.207,495.106c3.176,0.218,6.353,0.479,9.528,0.74
				c4.351,0.261,7.613-0.436,9.789-2.176c2.175-1.74,3.306-4.48,3.394-8.223c0.087-4.22-0.958-7.439-3.133-9.571
				c-2.176-2.132-5.481-3.394-10.007-3.785c-3.045-0.261-6.091-0.479-9.136-0.739C392.512,479.271,392.381,487.188,392.207,495.106z
				 M391.946,510.421c-0.131,8.31-0.305,16.619-0.435,24.973c4.394,0.348,8.788,0.696,13.182,1.044
				c4.09,0.349,7.135-0.348,9.224-2.088c2.088-1.74,3.132-4.612,3.22-8.614c0.087-4.308-0.74-7.701-2.48-10.05
				c-1.696-2.394-4.524-3.742-8.44-4.09C401.474,511.16,396.732,510.77,391.946,510.421z"/>
			<g id="XMLID_236_">
				<path id="XMLID_237_" fill="#262626" d="M488.66,573.244c-1.436-6.7-2.871-13.356-4.351-20.057
					c-4.655-0.739-9.311-1.436-13.966-2.088c-1.652,6.221-3.306,12.442-4.959,18.664c-11.877-1.653-23.755-3.133-35.675-4.395
					c11.094-37.851,22.188-75.57,33.238-113.115c10.659,1.479,21.361,3.089,31.977,4.829c9.702,40.634,19.36,81.443,29.019,122.339
					C512.24,577.203,500.45,575.114,488.66,573.244z"/>
			</g>
			<path id="XMLID_233_" fill="#F2F2F2" d="M490.357,545.4c-8.614-1.393-17.229-2.654-25.843-3.873
				c-1.653,6.222-3.307,12.486-4.96,18.708c-6.396-0.87-12.791-1.653-19.187-2.393c9.441-32.151,18.839-64.128,28.279-96.062
				c6.83,0.957,13.617,2.001,20.448,3.089c8.266,34.544,16.488,69.175,24.711,103.936c-6.352-1.174-12.703-2.262-19.099-3.306
				C493.271,558.8,491.793,552.1,490.357,545.4z M469.082,524.387c5.787,0.826,11.616,1.696,17.403,2.61
				c-2.654-12.312-5.308-24.625-7.919-36.894c-0.13,0-0.217-0.043-0.348-0.043C475.174,501.459,472.128,512.9,469.082,524.387z"/>
			<path id="XMLID_230_" fill="#F2F2F2" d="M241.459,532.392c-8.658,0.479-17.359,1.044-26.017,1.74
				c-1.653,6.569-3.306,13.183-5.003,19.795c-6.439,0.522-12.834,1.088-19.23,1.74c9.441-34.152,18.882-68.217,28.366-102.152
				c6.874-0.521,13.705-0.957,20.578-1.349c8.31,32.761,16.62,65.607,24.973,98.585c-6.439,0.218-12.878,0.479-19.273,0.827
				C244.374,545.139,242.895,538.743,241.459,532.392z M219.967,515.946c5.83-0.436,11.66-0.826,17.533-1.175
				c-2.654-11.746-5.308-23.449-8.005-35.196c-0.13,0-0.218,0-0.348,0.044C226.101,491.713,223.056,503.852,219.967,515.946z"/>
		</g>
	</g>
</g>
</svg>
