<svg width="32" height="25" viewBox="0 0 32 25" fill="none" xmlns="http://www.w3.org/2000/svg">
<path d="M29.3333 0.704102H9.46666C8.53333 0.704102 7.73333 1.1041 7.2 1.9041L0 12.7041L7.2 23.5041C7.73333 24.1708 8.53333 24.7041 9.46666 24.7041H29.3333C30.8 24.7041 32 23.5041 32 22.0375V3.37077C32 1.9041 30.8 0.704102 29.3333 0.704102ZM25.3333 17.5041L23.4667 19.3708L18.6667 14.5708L13.8667 19.3708L12 17.5041L16.8 12.7041L12 7.90409L13.8667 6.03743L18.6667 10.8374L23.4667 6.03743L25.3333 7.90409L20.5333 12.7041L25.3333 17.5041Z" fill="#1D1D1D"/>
</svg>
