<svg xmlns="http://www.w3.org/2000/svg" width="24" height="24" viewBox="0 0 23.83 22.8"><defs><style>.cls-1,.cls-3{fill:none;}.cls-1,.cls-2,.cls-3{stroke:#fff;stroke-miterlimit:10;stroke-width:2px;}.cls-2{fill:#fff;}.cls-3{stroke-linecap:round;}</style></defs><title>Asset 2</title><g id="Layer_2" data-name="Layer 2"><g id="Layer_1-2" data-name="Layer 1"><path class="cls-1" d="M5.78,5.41V2a1,1,0,0,1,1-1h10.7a1,1,0,0,1,1,1V5.41"/><path class="cls-2" d="M17.48,9.81"/><rect class="cls-1" x="5.78" y="14.11" width="12.7" height="7.69" rx="1" ry="1"/><line class="cls-3" x1="18.48" y1="9.81" x2="16.6" y2="9.81"/><path class="cls-1" d="M5.78,18H2a1,1,0,0,1-1-1V6.41a1,1,0,0,1,1-1H21.83a1,1,0,0,1,1,1V17a1,1,0,0,1-1,1H18.48"/></g></g></svg>