<?xml version="1.0" encoding="UTF-8"?><!DOCTYPE svg PUBLIC "-//W3C//DTD SVG 1.1//EN" "http://www.w3.org/Graphics/SVG/1.1/DTD/svg11.dtd">
  <svg xmlns="http://www.w3.org/2000/svg" xmlns:xlink="http://www.w3.org/1999/xlink" version="1.1" width="24" height="24" viewBox="0 0 39 30"><path d="M39.0215 8.94789C39.1911 9.82217 38.7978 10.703 37.8932 11.1682C37.0816 11.5852 36.3254 11.4025 35.6009 10.8621C34.2641 9.86572 32.9636 8.79811 31.5357 7.95088C22.8351 2.78966 12.7146 3.53989 4.61907 9.88485C4.3327 10.1099 4.05029 10.3401 3.76854 10.5704C2.56632 11.5536 1.36081 11.514 0.493784 10.4609C-0.309234 9.48566 -0.12514 8.33424 0.98998 7.35769C10.6163 -1.07499 24.3672 -2.00931 35.0157 5.07466C36.2621 5.90342 37.7249 6.78166 38.6124 8.01818C38.8249 8.31379 38.9601 8.63051 39.0215 8.94789Z" fill="#767F8D"/>
    <path d="M19.4963 7.86914C24.575 7.8863 28.9556 9.75891 32.8401 12.9294C33.8655 13.7661 34.0317 14.9511 33.3 15.9C32.4303 17.0283 31.2215 17.2586 30.113 16.4377C27.9903 14.8654 25.6994 13.644 23.1108 13.0634C17.9727 11.9106 13.3803 13.2046 9.18965 16.2424C7.93596 17.1517 6.92972 17.0732 5.97164 16.0161C5.09934 15.0541 5.14421 13.801 6.15903 12.9637C10.0283 9.77276 14.4109 7.90345 19.4956 7.87046L19.4963 7.86914Z" fill="#767F8D"/>
    <path d="M19.527 16.4795C22.2395 16.4808 24.6295 17.4231 26.7878 19.0034C27.7485 19.7067 27.9583 20.8997 27.3447 21.8176C26.7033 22.7763 25.5097 23.0224 24.4605 22.3448C21.193 20.2333 17.9368 20.1996 14.6495 22.2959C13.572 22.9828 12.4093 22.7644 11.7567 21.8143C11.1068 20.8674 11.3272 19.6691 12.3374 18.938C14.4799 17.3874 16.8507 16.4808 19.5276 16.4802L19.527 16.4795Z" fill="#767F8D"/>
    <path d="M19.5796 24.1393C21.3499 24.1743 22.725 25.6042 22.6927 27.3778C22.6603 29.1369 21.2061 30.5338 19.4489 30.4942C17.6825 30.4546 16.3147 29.0247 16.3404 27.2445C16.3655 25.4814 17.802 24.1044 19.5802 24.1393H19.5796Z" fill="#767F8D"/>
    <path fill-rule="evenodd" clip-rule="evenodd" d="M3.41563 1.44108C4.08855 0.757293 5.18838 0.748484 5.87217 1.42141L31.4032 26.5468C32.087 27.2197 32.0958 28.3196 31.4229 29.0033C30.7499 29.6871 29.6501 29.6959 28.9663 29.023L3.4353 3.89762C2.75151 3.2247 2.7427 2.12487 3.41563 1.44108Z" fill="#767F8D"/>
  </svg>

