<svg xmlns="http://www.w3.org/2000/svg" width="24" height="24" viewBox="0 0 40 31">
<path d="M39.8312 8.65646C40.0007 9.5307 39.6075 10.4115 38.7029 10.8767C37.8913 11.2937 37.1352 11.1109 36.4107 10.5705C35.074 9.57425 33.7735 8.50669 32.3457 7.6595C23.6455 2.49853 13.5255 3.24872 5.43037 9.59338C5.14402 9.81837 4.86162 10.0486 4.57988 10.2789C3.37772 11.262 2.17226 11.2224 1.30528 10.1694C0.502304 9.1942 0.686389 8.04285 1.80146 7.06634C11.4273 -1.36594 25.1776 -2.30022 35.8255 4.78342C37.0719 5.61213 38.5346 6.49033 39.4221 7.7268C39.6345 8.02239 39.7698 8.3391 39.8312 8.65646Z" fill="white"/>
<path d="M20.3071 7.57812C25.3856 7.59528 29.766 9.4678 33.6503 12.6381C34.6756 13.4748 34.8419 14.6598 34.1102 15.6086C33.2406 16.7368 32.0318 16.9671 30.9233 16.1463C28.8007 14.574 26.5099 13.3527 23.9215 12.7721C18.7836 11.6194 14.1914 12.9133 10.001 15.951C8.74736 16.8602 7.74116 16.7817 6.78313 15.7247C5.91087 14.7627 5.95574 13.5097 6.97052 12.6725C10.8396 9.48166 15.222 7.61243 20.3064 7.57944L20.3071 7.57812Z" fill="white"/>
<path d="M20.3378 16.1875C23.0503 16.1888 25.4401 17.131 27.5983 18.7112C28.559 19.4146 28.7688 20.6075 28.1552 21.5253C27.5139 22.484 26.3203 22.7301 25.2712 22.0525C22.0038 19.9411 18.7477 19.9075 15.4606 22.0037C14.3831 22.6905 13.2206 22.4721 12.568 21.522C11.9181 20.5752 12.1385 19.377 13.1486 18.6459C15.291 17.0954 17.6617 16.1888 20.3385 16.1882L20.3378 16.1875Z" fill="white"/>
<path d="M20.3895 23.8473C22.1597 23.8823 23.5348 25.3121 23.5024 27.0856C23.4701 28.8447 22.0159 30.2415 20.2588 30.2019C18.4925 30.1623 17.1248 28.7325 17.1505 26.9524C17.1756 25.1894 18.612 23.8124 20.3901 23.8473H20.3895Z" fill="white"/>
</svg>
