<?xml version="1.0" encoding="utf-8"?>
<svg xmlns="http://www.w3.org/2000/svg" xmlns:xlink="http://www.w3.org/1999/xlink" id="Layer_1" width="24px" height="24px" x="0px" y="0px" version="1.1" viewBox="0 0 1200 1200">
    <g>
        <path d="M771.731,817.433c-43.992-44.026-104.657-71.217-171.763-71.217c-67.109,0-127.774,27.191-171.652,71.217
		l171.652,171.669L771.731,817.433z"/>
        <path d="M599.968,299.478c190.143,0,362.583,77.331,487.428,202.21L1150,439.084
		c-140.956-140.858-335.442-228.186-550.032-228.186c-214.526,0-409.076,87.328-549.968,228.186l62.588,62.604
		C237.513,376.809,409.889,299.478,599.968,299.478z"/>
        <path d="M599.968,476.601c141.299,0,269.383,57.507,362.236,150.262l62.54-62.571
		C915.959,455.46,765.681,388.088,599.968,388.088c-165.699,0-315.897,67.372-424.793,176.204l62.668,62.571
		C330.598,534.108,458.729,476.601,599.968,476.601z"/>
        <path d="M599.968,653.855c92.408,0,176.318,37.615,237.047,98.28l62.537-62.668
		c-76.708-76.712-182.813-124.188-299.584-124.188c-116.855,0-222.778,47.477-299.588,124.188l62.655,62.668
		C423.781,691.471,507.556,653.855,599.968,653.855z"/>
    </g>
</svg>
