<svg xmlns="http://www.w3.org/2000/svg" width="24" height="24" viewBox="0 0 1200 1200">
    <path d="M771.73 817.43c-43.992-44.026-104.66-71.217-171.76-71.217-67.109 0-127.77 27.191-171.65 71.217L599.97 989.1l171.76-171.67zM599.97 299.48c190.14 0 362.58 77.331 487.43 202.21l62.604-62.604c-140.96-140.86-335.44-228.19-550.03-228.19-214.53 0-409.08 87.328-549.97 228.19l62.588 62.604c124.92-124.88 297.3-202.21 487.38-202.21z"/>
    <path d="M599.97 476.6c141.3 0 269.38 57.507 362.24 150.26l62.54-62.571c-108.78-108.83-259.06-176.2-424.78-176.2-165.7 0-315.9 67.372-424.79 176.2l62.668 62.571c92.755-92.755 220.89-150.26 362.12-150.26z"/>
    <path d="M599.97 653.86c92.408 0 176.32 37.615 237.05 98.28l62.537-62.668c-76.708-76.712-182.81-124.19-299.58-124.19-116.86 0-222.78 47.477-299.59 124.19l62.655 62.668c60.746-60.664 144.52-98.28 236.93-98.28z"/>
</svg>
