<?xml version="1.0" encoding="UTF-8"?>
<svg width="20px" height="20px" viewBox="0 0 20 20" version="1.1" xmlns="http://www.w3.org/2000/svg" xmlns:xlink="http://www.w3.org/1999/xlink">
    <!-- Generator: Sketch 50 (54983) - http://www.bohemiancoding.com/sketch -->
    <title>icon/home copy 2</title>
    <desc>Created with Sketch.</desc>
    <defs>
        <path d="M1.22202607,9.45191297 L2.68592836,9.45191297 C2.81405687,9.45191297 2.91792556,9.55004397 2.91792556,9.67109469 L2.91792556,17.7808183 C2.91792556,17.901869 3.02179424,18 3.14992275,18 L6.78986662,18 C6.91799513,18 7.02186381,17.901869 7.02186381,17.7808183 L7.02186381,12.3012753 C7.02186381,12.1802246 7.12573249,12.0820936 7.25386101,12.0820936 L12.7338189,12.0820936 C12.8619474,12.0820936 12.9658161,12.1802246 12.9658161,12.3012753 L12.9658161,17.7808183 C12.9658161,17.901869 13.0696848,18 13.1978133,18 L16.8377572,18 C16.9658857,18 17.0697544,17.901869 17.0697544,17.7808183 L17.0697544,9.67109469 C17.0697544,9.55004397 17.173623,9.45191297 17.3017516,9.45191297 L18.7679738,9.45191297 C18.8651109,9.45192003 18.9519684,9.39475382 18.9856212,9.30866594 C19.019274,9.22257806 18.9925962,9.12579743 18.918772,9.06615315 L10.4717542,2.1597372 C10.2105232,1.94675427 9.82355613,1.94675427 9.56232518,2.1597372 L1.0712279,9.07492042 C1.00428875,9.13571327 0.982163586,9.22835771 1.01498724,9.31041623 C1.0478109,9.39247475 1.12926032,9.4481398 1.22202607,9.45191297 Z" id="path-1"></path>
    </defs>
    <g id="icon/home-copy-2" stroke="none" stroke-width="1" fill="none" fill-rule="evenodd">
        <mask id="mask-2" fill="white">
            <use xlink:href="#path-1"></use>
        </mask>
        <path stroke="#000000" d="M17.5697544,9.95191297 L17.5697544,17.7808183 C17.5697544,18.1845641 17.235875,18.5 16.8377572,18.5 L13.1978133,18.5 C12.7996955,18.5 12.4658161,18.1845641 12.4658161,17.7808183 L12.4658161,12.5820936 L7.52186381,12.5820936 L7.52186381,17.7808183 C7.52186381,18.1845641 7.18798444,18.5 6.78986662,18.5 L3.14992275,18.5 C2.75180492,18.5 2.41792556,18.1845641 2.41792556,17.7808183 L2.41792556,9.95191297 L1.22202607,9.95191297 L1.20170575,9.95149989 C0.915080391,9.93984162 0.657949162,9.76411017 0.550749389,9.49611279 C0.439790808,9.21871846 0.51473906,8.90488853 0.755487159,8.68722494 L9.24637453,1.77221276 C9.69154573,1.40926241 10.3425336,1.40926241 10.7882418,1.77265121 L19.2329948,8.67722641 C19.4748514,8.87262786 19.5650316,9.19977984 19.4513046,9.49070719 C19.3414321,9.77177421 19.0676988,9.95193476 18.7679738,9.95191297 L17.5697544,9.95191297 Z"></path>
    </g>
</svg>