<?xml version="1.0" encoding="UTF-8"?>
<svg width="20px" height="20px" viewBox="0 0 20 20" version="1.1" xmlns="http://www.w3.org/2000/svg" xmlns:xlink="http://www.w3.org/1999/xlink">
    <!-- Generator: Sketch 50 (54983) - http://www.bohemiancoding.com/sketch -->
    <title>icon/home</title>
    <desc>Created with Sketch.</desc>
    <defs>
        <path d="M0.246695634,9.3834021 L1.87325374,9.3834021 C2.01561875,9.3834021 2.13102839,9.49379947 2.13102839,9.62998153 L2.13102839,18.7534206 C2.13102839,18.8896026 2.24643804,19 2.38880305,19 L7.54429624,19 C7.68666126,19 7.8020709,18.8896026 7.8020709,18.7534206 L7.8020709,12.5889347 C7.8020709,12.4527527 7.91748055,12.3423553 8.05984556,12.3423553 L11.9264655,12.3423553 C12.0688305,12.3423553 12.1842401,12.4527527 12.1842401,12.5889347 L12.1842401,18.7534206 C12.1842401,18.8896026 12.2996498,19 12.4420148,19 L17.597508,19 C17.739873,19 17.8552826,18.8896026 17.8552826,18.7534206 L17.8552826,9.62998153 C17.8552826,9.49379947 17.9706923,9.3834021 18.1130573,9.3834021 L19.7421931,9.3834021 C19.8501233,9.38341004 19.9466316,9.31909805 19.9840236,9.22224918 C20.0214156,9.12540032 19.9917736,9.01652211 19.9097467,8.94942229 L10.5241713,1.17970435 C10.2339147,0.940098551 9.80395126,0.940098551 9.51369464,1.17970435 L0.0791421056,8.95928547 C0.0047652777,9.02767743 -0.0198182382,9.13190242 0.0166524936,9.22421826 C0.0531232253,9.31653409 0.143622574,9.37915727 0.246695634,9.3834021 Z" id="path-1"></path>
    </defs>
    <g id="icon/home" stroke="none" stroke-width="1" fill="none" fill-rule="evenodd">
        <mask id="mask-2" fill="white">
            <use xlink:href="#path-1"></use>
        </mask>
        <use id="Shape" fill="#000000" fill-rule="nonzero" xlink:href="#path-1"></use>
    </g>
</svg>