<?xml version="1.0" encoding="utf-8"?>
<!-- Generator: Adobe Illustrator 21.1.0, SVG Export Plug-In . SVG Version: 6.00 Build 0)  -->
<svg version="1.1" id="Layer_1" xmlns="http://www.w3.org/2000/svg" xmlns:xlink="http://www.w3.org/1999/xlink" x="0px" y="0px"
	 viewBox="0 0 24 24" style="enable-background:new 0 0 24 24;" xml:space="preserve">
<title>lock-stn-open</title>
<path d="M18.9,11.7h-1.1V7.8C17.8,4.6,15.2,2,12,2S6.1,4.6,6.1,7.8v3.8h-1c-0.2,0-0.3,0.1-0.3,0.3v8.4c0,0.9,0.7,1.6,1.6,1.6h11.3
	c0.9,0,1.6-0.7,1.6-1.6V12C19.2,11.8,19.1,11.7,18.9,11.7z M15.8,7.8v3.8H8.2V7.8c-0.1-2.1,1.5-3.9,3.6-4c2.1-0.1,3.9,1.5,4,3.6
	C15.8,7.6,15.8,7.7,15.8,7.8z"/>
</svg>
