<?xml version="1.0" encoding="utf-8"?>
<!-- Generator: Adobe Illustrator 21.1.0, SVG Export Plug-In . SVG Version: 6.00 Build 0)  -->
<svg version="1.1" id="Layer_1" xmlns="http://www.w3.org/2000/svg" xmlns:xlink="http://www.w3.org/1999/xlink" x="0px" y="0px"
	 viewBox="0 0 26 26" style="enable-background:new 0 0 26 26;" xml:space="preserve">
<title>Group 6</title>
<desc>Created with Sketch.</desc>
<g>
	<path d="M7.5,13.5C7.4,13.2,7.3,13,7,12.9c-0.3-0.2-0.6-0.2-0.8-0.1c-0.2,0.1-0.4,0.3-0.4,0.5l-0.4,0.8c0-0.2,0-0.4,0-0.6
		C5.4,9,9,5.3,13.5,5.3c2.1,0,4.1,0.8,5.5,2.2c0.4,0.4,1,0.4,1.4,0c0.2-0.2,0.3-0.4,0.3-0.7c0-0.3-0.1-0.5-0.3-0.7l0,0
		c-1.9-1.8-4.3-2.8-6.9-2.8C7.8,3.3,3.3,7.9,3.3,13.5c0,0.4,0.1,0.9,0.1,1.4l-0.8-0.5c-0.4-0.3-1-0.2-1.3,0.3
		c-0.1,0.2-0.2,0.5-0.1,0.7s0.2,0.4,0.4,0.6l2.7,1.6c0.2,0.2,0.4,0.2,0.6,0.2c0.5,0,0.7-0.2,0.8-0.4l1.6-3C7.5,14,7.5,13.8,7.5,13.5
		z"/>
	<path d="M25.3,10.7L22.7,9c-0.3-0.3-0.5-0.3-0.7-0.3c-0.3-0.1-0.7,0-1,0.4l-1.7,2.6c-0.1,0.2-0.2,0.5-0.1,0.7s0.2,0.4,0.4,0.6
		c0.2,0.1,0.4,0.2,0.7,0.1c0.2,0,0.5-0.2,0.6-0.4l0.7-1c0,0.3,0.1,0.7,0.1,1c0,4.5-3.6,8.1-8.1,8.1c-2.1,0-4.1-0.8-5.5-2.2
		c-0.4-0.4-1-0.4-1.4,0c-0.4,0.4-0.4,1,0,1.4c1.9,1.8,4.3,2.8,6.9,2.8c5.6,0,10.1-4.6,10.1-10.2c0-0.3,0-0.6-0.1-0.9
		c0-0.1,0-0.2,0-0.3l0.9,0.5c0.4,0.3,1,0.2,1.2-0.2c0.1-0.1,0.1-0.2,0.1-0.4C25.7,11.1,25.5,10.8,25.3,10.7z"/>
</g>
</svg>
