<svg width="32" height="25" viewBox="0 0 32 25" xmlns="http://www.w3.org/2000/svg">
  <path fill-rule="evenodd" clip-rule="evenodd"
    d="M29.3333 0.703918H9.46666C8.53333 0.703918 7.73333 1.10392 7.2 1.90392L0 12.7039L7.2 23.5039C7.73333 24.1706 8.53333 24.7039 9.46666 24.7039H29.3333C30.8 24.7039 32 23.5039 32 22.0373V3.37059C32 1.90392 30.8 0.703918 29.3333 0.703918ZM25.3333 17.5039L23.4667 19.3706L18.6667 14.5706L13.8667 19.3706L12 17.5039L16.8 12.7039L12 7.90391L13.8667 6.03725L18.6667 10.8372L23.4667 6.03725L25.3333 7.90391L20.5333 12.7039L25.3333 17.5039Z" />
</svg>
