<svg width="24" height="26" viewBox="0 0 24 26" fill="none" xmlns="http://www.w3.org/2000/svg">
<path d="M12.3883 7.693C14.7963 7.693 16.2153 5.93 16.2153 3.78C16.2153 1.587 14.7103 0.34 12.6463 0.34C10.4963 0.34 8.86234 1.759 8.86234 4.124C8.86234 6.446 10.3673 7.693 12.3883 7.693ZM23.0093 15.175V9.929H0.993344V15.175H23.0093ZM12.3883 25.237C14.7963 25.237 16.2153 23.474 16.2153 21.324C16.2153 19.131 14.7103 17.884 12.6463 17.884C10.4963 17.884 8.86234 19.303 8.86234 21.668C8.86234 23.99 10.3673 25.237 12.3883 25.237Z" fill="#303742"/>
</svg>
