<svg width="40" height="32" viewBox="0 0 40 32" fill="none" xmlns="http://www.w3.org/2000/svg">
  <path
    d="M8.2138 18.315C12.6428 18.315 16.2118 15.305 16.2118 8.898C16.2118 2.792 12.6428 0.254999 8.9018 0.254999C4.3008 0.254999 0.860801 3.437 0.860801 9.586C0.860801 15.692 4.4728 18.315 8.2138 18.315ZM15.0078 31C19.8668 20.852 24.8548 10.661 29.9718 0.512998H24.9838C20.7268 9.586 15.6958 19.777 10.0198 31H15.0078ZM8.3858 13.757C7.3968 13.757 6.4938 12.639 6.4938 9.457C6.4938 6.447 7.2678 4.813 8.6868 4.813C9.8478 4.813 10.6218 5.759 10.6218 9.113C10.6218 12.424 9.7618 13.757 8.3858 13.757ZM31.1328 31.344C35.5618 31.344 39.1308 28.334 39.1308 21.927C39.1308 15.821 35.5618 13.284 31.8208 13.284C27.2198 13.284 23.7798 16.466 23.7798 22.615C23.7798 28.721 27.3918 31.344 31.1328 31.344ZM31.3048 26.786C30.3158 26.786 29.4128 25.668 29.4128 22.486C29.4128 19.476 30.1868 17.842 31.6058 17.842C32.7668 17.842 33.5408 18.788 33.5408 22.142C33.5408 25.453 32.6808 26.786 31.3048 26.786Z"
    fill="#303742" />
</svg>
