<svg viewBox="0 0 23 19" fill="none" xmlns="http://www.w3.org/2000/svg">
  <path fill-rule="evenodd"
    d="M16.64 12.75c0-.28.22-.5.5-.5h4.42a.5.5 0 0 0 .36-.85L12.1 1.37a.5.5 0 0 0-.72 0L1.6 11.4a.5.5 0 0 0 .35.85h4.42c.28 0 .5.22.5.5V18c0 .28.22.5.5.5h8.78a.5.5 0 0 0 .5-.5v-5.25Z"
    fill="#252C37" />
  <path
    d="m1.58 11.4-.36-.35.36.35Zm20.34 0 .36-.35-.36.35Zm-4.78 1.35h4.42v-1h-4.42v1Zm5.14-1.7L12.46 1.02l-.71.7 9.81 10.03.72-.7ZM11.03 1.02l-9.8 10.03.7.7 9.82-10.03-.71-.7Zm-9.1 11.73h4.43v-1H1.94v1Zm4.43 0V18h1v-5.25h-1Zm1 6.25h8.78v-1H7.36v1Zm9.78-1v-5.25h-1V18h1Zm-1 1a1 1 0 0 0 1-1h-1v1Zm-9.78-1a1 1 0 0 0 1 1v-1h-1Zm0-5.25h1a1 1 0 0 0-1-1v1Zm-5.14-1.7a1 1 0 0 0 .72 1.7v-1l-.72-.7ZM12.46 1.02a1 1 0 0 0-1.43 0l.72.7.71-.7Zm9.1 11.73a1 1 0 0 0 .72-1.7l-.72.7v1Zm-4.42-1a1 1 0 0 0-1 1h1v-1Z"
    fill="#252C37" />
</svg>
