<?xml version="1.0" encoding="UTF-8"?>
<svg viewBox="0 0 120 120" xmlns="http://www.w3.org/2000/svg">
  <path
    d="m28.903 31.099c-0.348-0.3484-0.7614-0.6249-1.2163-0.8135-0.455-0.1886-0.9426-0.2857-1.4351-0.2857s-0.9801 0.0971-1.4351 0.2857c-0.4549 0.1886-0.8683 0.4651-1.2163 0.8135l-21.606 23.816c-1.2818 1.3814-1.9941 3.1963-1.9941 5.0809 0 1.8847 0.71231 3.6996 1.9941 5.081v0.0141l21.606 23.813c0.525 0.5243 1.1937 0.8811 1.9215 1.0253 0.7278 0.1441 1.482 0.0691 2.1671-0.2156 0.6852-0.2846 1.2706-0.7661 1.6821-1.3835 0.4116-0.6175 0.6308-1.3431 0.6299-2.0852v-52.503c-0.0019-0.9913-0.3967-1.9413-1.0978-2.6421z"
    fill="#fff" />
  <path
    d="m60.001 116.41c6e-4 0.49 0.1012 0.974 0.2956 1.424 0.1944 0.449 0.4784 0.854 0.8347 1.19 0.3563 0.335 0.7773 0.594 1.2371 0.761 0.4598 0.166 0.9488 0.237 1.4369 0.207 31.363-1.979 56.195-28.076 56.195-59.993 0-31.916-24.835-58.025-56.195-59.993-0.4883-0.030512-0.9776 0.039515-1.4378 0.20576s-0.8815 0.42519-1.238 0.76086c-0.3564 0.33567-0.6405 0.74094-0.8346 1.1908-0.1941 0.44988-0.2941 0.93484-0.2939 1.425v22.509c0.0073 1.0103 0.3852 1.9826 1.0618 2.7318 0.6765 0.7493 1.6044 1.2231 2.607 1.3313 7.2612 0.9032 13.943 4.4338 18.787 9.9274 4.8447 5.4937 7.5185 12.572 7.5185 19.902s-2.6738 14.409-7.5185 19.902c-4.8447 5.4936-11.526 9.0242-18.787 9.9274-1.0024 0.1088-1.9299 0.5828-2.6063 1.3319s-1.0546 1.721-1.0625 2.7312v22.526z"
    fill="#fff" />
</svg>
