<svg width="30" height="15" viewBox="0 0 30 15" fill="none" xmlns="http://www.w3.org/2000/svg">
<g id="Ticket">
<path id="Combined-Shape" fill-rule="evenodd" clip-rule="evenodd" d="M13.2966 7.69182V5.64811L14.1859 5.28648V6.3657H14.7845L14.6648 7.03734H14.1745V7.72621C14.1745 8.39534 14.4264 8.86661 14.6934 9.24503C14.826 8.68502 14.8966 8.10082 14.8966 7.49997C14.8965 3.35783 11.5618 0 7.44824 0C4.10828 0 1.28184 2.21368 0.336835 5.2635H3.10842L3.00011 6.06718H1.84279V9.3164H0.896368V6.06718H0.13631C0.0472312 6.53103 0 7.00992 0 7.49997C6.40858e-05 11.6422 3.3347 15 7.44831 15C10.9398 15 13.8696 12.5808 14.6762 9.3164H13.7982C13.782 9.28791 13.7635 9.25699 13.7435 9.22345C13.5737 8.93932 13.2915 8.46709 13.2966 7.69182ZM3.30234 5.92366H4.19166V5.2635H3.30234V5.92366ZM9.02629 9.3164C8.98066 9.20727 8.91222 9.02936 8.85525 8.85138L8.72413 8.40934C8.65568 8.17406 8.56449 8.07643 8.34211 8.07643H7.96587V9.3164H7.09359V5.2635H7.96587V7.49661H8.06283L8.88941 6.30833H9.85857L8.8837 7.54824H8.93503C9.32269 7.54824 9.4367 7.76642 9.53366 8.08791L9.699 8.64475C9.75597 8.85138 9.87575 9.14416 9.96688 9.3164H9.02629ZM13.1083 8.03048H10.8506C10.9362 8.52415 11.4036 8.71361 11.8084 8.71361C12.065 8.71361 12.293 8.65618 12.5154 8.55293L12.4527 9.23025C12.2018 9.33356 11.8997 9.37377 11.5975 9.37377C10.5942 9.37377 9.88722 8.78253 9.88722 7.7779C9.88722 6.90531 10.52 6.2509 11.4892 6.2509C12.5838 6.2509 13.1311 6.95126 13.1083 8.03048ZM6.79143 8.51272C6.6489 8.58158 6.46075 8.64475 6.23273 8.64475C5.71389 8.65043 5.38327 8.31177 5.38327 7.80662C5.38327 7.29566 5.69684 6.97997 6.17569 6.97997C6.36955 6.97997 6.55194 7.04309 6.68306 7.12343L6.93389 6.44604C6.66031 6.31975 6.3923 6.2509 6.04457 6.2509C5.09822 6.2509 4.45973 6.85943 4.45973 7.80662C4.45973 8.7653 5.10956 9.37951 6.05028 9.37951C6.27259 9.37951 6.52919 9.33356 6.71164 9.2418L6.79143 8.51272ZM4.19166 9.3164H3.30234V6.30833H4.19166V9.3164ZM10.8279 7.44494C10.902 7.1177 11.1414 6.87086 11.5177 6.87086C11.8712 6.87086 12.122 7.0833 12.1676 7.44494H10.8279Z" fill="#D52B1E"/>
<path id="Combined-Shape_2" fill-rule="evenodd" clip-rule="evenodd" d="M18.9429 5.95891C18.7441 5.95891 18.553 6.04603 18.4817 6.23853H18.4715C18.3976 6.04603 18.2116 5.95891 18.0129 5.95891C17.6868 5.95891 17.4804 6.14889 17.4804 6.50234V7.36753H17.7632V6.55517C17.7632 6.35196 17.8524 6.21481 18.0486 6.21481C18.2447 6.21481 18.339 6.33622 18.339 6.55776V7.36753H18.6167V6.55776C18.6167 6.33622 18.711 6.21481 18.9072 6.21481C19.1034 6.21481 19.1951 6.34671 19.1951 6.55517V7.36753H19.4779V6.50234C19.4779 6.14889 19.2715 5.95891 18.9429 5.95891ZM16.8508 5.98267V6.77935C16.8508 7.00355 16.7464 7.13546 16.5323 7.13546C16.3183 7.13546 16.2138 7.00355 16.2138 6.77935V5.98267H15.931V6.82679C15.931 7.20396 16.1756 7.39136 16.5323 7.39136C16.889 7.39136 17.1336 7.20396 17.1336 6.82679V5.98267H16.8508ZM20.4797 6.21484C20.2172 6.21484 20.0466 6.42323 20.0466 6.6764C20.0466 6.93762 20.2122 7.13544 20.4797 7.13544C20.7421 7.13544 20.9154 6.94819 20.9154 6.6764C20.9154 6.40475 20.7421 6.21484 20.4797 6.21484ZM20.9383 7.36755H21.216V6.69494C21.216 6.24913 20.9306 5.95894 20.4822 5.95894C20.0567 5.95894 19.751 6.25969 19.751 6.68179C19.751 7.11165 20.0491 7.38868 20.4313 7.38868C20.6428 7.38868 20.8262 7.29632 20.9383 7.14601V7.36755ZM23.3719 6.23853C23.4433 6.04603 23.6343 5.95891 23.833 5.95891C24.1617 5.95891 24.3682 6.14889 24.3682 6.50234V7.36753H24.0853V6.55517C24.0853 6.34671 23.9936 6.21481 23.7974 6.21481C23.6012 6.21481 23.5069 6.33622 23.5069 6.55776V7.36753H23.2292V6.55776C23.2292 6.33622 23.1349 6.21481 22.9388 6.21481C22.7426 6.21481 22.6534 6.35196 22.6534 6.55517V7.36753H22.3706V6.50234C22.3706 6.14889 22.577 5.95891 22.9031 5.95891C23.1018 5.95891 23.2878 6.04603 23.3617 6.23853H23.3719ZM24.9367 6.6764C24.9367 6.42323 25.1074 6.21484 25.3699 6.21484C25.6323 6.21484 25.8056 6.40475 25.8056 6.6764C25.8056 6.94819 25.6323 7.13544 25.3699 7.13544C25.1024 7.13544 24.9367 6.93762 24.9367 6.6764ZM26.1062 7.36755H25.8285V7.14601C25.7164 7.29632 25.533 7.38868 25.3215 7.38868C24.9393 7.38868 24.6412 7.11165 24.6412 6.68179C24.6412 6.25969 24.9469 5.95894 25.3724 5.95894C25.8208 5.95894 26.1062 6.24913 26.1062 6.69494V7.36755ZM27.1401 6.24697L27.146 6.24912L27.2073 5.99853L27.1955 5.99521C27.1602 5.98501 27.07 5.95893 26.9855 5.95893C26.6824 5.95893 26.453 6.09349 26.453 6.51818V7.36755H26.7359V6.57094C26.7359 6.34939 26.7894 6.21749 26.9932 6.21749C27.0597 6.21749 27.118 6.23888 27.1401 6.24697ZM28.0048 5.95894C28.1501 5.95894 28.2698 5.99064 28.3845 6.05124L28.2902 6.28342C28.2239 6.24122 28.1348 6.20694 28.0379 6.20694C27.7883 6.20694 27.6099 6.38635 27.6099 6.67382C27.6099 6.94028 27.7628 7.14861 28.0557 7.14336C28.1653 7.1407 28.252 7.10907 28.3157 7.06946L28.2952 7.33061C28.2112 7.37022 28.1042 7.39135 27.9997 7.39135C27.587 7.39135 27.3118 7.10907 27.3118 6.67382C27.3118 6.24647 27.5895 5.95894 28.0048 5.95894ZM28.8306 6.6764C28.8306 6.42323 29.0012 6.21484 29.2637 6.21484C29.5261 6.21484 29.6994 6.40475 29.6994 6.6764C29.6994 6.94819 29.5261 7.13544 29.2637 7.13544C28.9962 7.13544 28.8306 6.93762 28.8306 6.6764ZM30 7.36755H29.7223V7.14601C29.6102 7.29632 29.4268 7.38868 29.2153 7.38868C28.8331 7.38868 28.535 7.11165 28.535 6.68179C28.535 6.25969 28.8407 5.95894 29.2662 5.95894C29.7146 5.95894 30 6.24913 30 6.69494V7.36755ZM15.9667 9.21437C15.9667 9.46489 16.0967 9.63374 16.3616 9.63374H17.1413L17.1871 9.37H16.4406C16.3438 9.37 16.2725 9.3278 16.2725 9.16154V8.82916H17.0215L17.0648 8.57591H16.2725V8.03521H17.1565L17.2024 7.77147H15.9667V9.21437ZM18.097 8.48101C17.8295 8.48101 17.6638 8.67618 17.6638 8.93998C17.6638 9.19582 17.8345 9.40162 18.097 9.40162C18.3594 9.40162 18.5327 9.2117 18.5327 8.93998C18.5327 8.66827 18.3594 8.48101 18.097 8.48101ZM18.0868 9.65752C18.5352 9.65752 18.8205 9.36208 18.8205 8.89513V7.77145H18.5377V8.44672C18.446 8.32014 18.2753 8.22511 18.0562 8.22511C17.6613 8.22511 17.3683 8.50739 17.3683 8.93998C17.3683 9.35676 17.6715 9.65752 18.0868 9.65752ZM19.4146 8.78697H20.1814C20.1534 8.57333 20.0158 8.44933 19.812 8.44933C19.6031 8.44933 19.4579 8.5839 19.4146 8.78697ZM20.4872 9.00333C20.4898 8.54163 20.2528 8.22513 19.8069 8.22513C19.3967 8.22513 19.1088 8.52057 19.1088 8.92944C19.1088 9.37001 19.4069 9.65754 19.835 9.65754C19.9623 9.65754 20.0796 9.63641 20.1687 9.59421L20.1866 9.34622C20.0973 9.39898 20.0006 9.4227 19.8884 9.4227C19.6566 9.4227 19.4375 9.29611 19.4146 9.00333H20.4872ZM21.0327 8.83709V9.63377H20.7499V8.78965C20.7499 8.41248 20.9945 8.22781 21.3512 8.22781C21.7079 8.22781 21.9525 8.41248 21.9525 8.78965V9.63377H21.6697V8.83709C21.6697 8.61289 21.5652 8.48098 21.3512 8.48098C21.1372 8.48098 21.0327 8.61289 21.0327 8.83709ZM22.9863 8.51314L22.9923 8.51529L23.0535 8.26471L23.0417 8.26138L23.0417 8.26138C23.0064 8.25118 22.9162 8.2251 22.8317 8.2251C22.5286 8.2251 22.2993 8.35967 22.2993 8.78435V9.63372H22.5821V8.83711C22.5821 8.61557 22.6356 8.48366 22.8394 8.48366C22.906 8.48366 22.9643 8.50505 22.9863 8.51314ZM23.4638 8.78697H24.2306C24.2027 8.57333 24.065 8.44933 23.8612 8.44933C23.6523 8.44933 23.5071 8.5839 23.4638 8.78697ZM24.5364 9.00333C24.539 8.54163 24.302 8.22513 23.8561 8.22513C23.4459 8.22513 23.158 8.52057 23.158 8.92944C23.158 9.37001 23.4561 9.65754 23.8842 9.65754C24.0115 9.65754 24.1288 9.63641 24.2179 9.59421L24.2358 9.34622C24.1466 9.39898 24.0498 9.4227 23.9376 9.4227C23.7058 9.4227 23.4867 9.29611 23.4638 9.00333H24.5364ZM25.4565 8.48101C25.189 8.48101 25.0234 8.67618 25.0234 8.93998C25.0234 9.19582 25.1941 9.40162 25.4565 9.40162C25.7189 9.40162 25.8922 9.2117 25.8922 8.93998C25.8922 8.66827 25.7189 8.48101 25.4565 8.48101ZM25.4463 9.65752C25.8947 9.65752 26.1801 9.36208 26.1801 8.89513V7.77145H25.8973V8.44672C25.8056 8.32014 25.6349 8.22511 25.4158 8.22511C25.0209 8.22511 24.7279 8.50739 24.7279 8.93998C24.7279 9.35676 25.031 9.65752 25.4463 9.65752Z" fill="#162056"/>
</g>
</svg>
